<svg width="22" height="26" viewBox="0 0 22 26" fill="none" xmlns="http://www.w3.org/2000/svg">
<path id="Vector" fill-rule="evenodd" clip-rule="evenodd" d="M14.9782 0.832031C15.2215 2.17049 14.6132 3.50895 13.8831 4.48238C13.153 5.45581 11.8145 6.30756 10.4761 6.18588C10.2327 4.84742 10.8411 3.63063 11.5712 2.65721C12.4229 1.68378 13.7614 0.95371 14.9782 0.832031ZM18.8719 22.0041C19.4803 21.0306 19.8453 20.4222 20.332 19.3271C16.56 17.867 15.9516 12.5131 19.7236 10.5663C18.6285 9.10616 17.0467 8.37609 15.4649 8.37609C14.3698 8.37609 13.6397 8.61944 12.9097 8.8628C12.3013 9.10616 11.8146 9.22783 11.2062 9.22783C10.4761 9.22783 9.98938 8.98448 9.25931 8.74112C8.52924 8.49776 7.79921 8.25441 6.94747 8.25441C5.24397 8.25441 3.4188 9.22783 2.32369 11.053C0.741873 13.4866 0.98523 18.232 3.54047 22.1257C4.63558 23.5859 5.85236 25.1677 7.43418 25.1677C8.16425 25.1677 8.52924 24.9243 9.01595 24.8027C9.62434 24.5593 10.2327 24.3159 11.2062 24.3159C12.3013 24.3159 12.788 24.5593 13.3964 24.8027C13.8831 25.046 14.2481 25.1677 14.9782 25.1677C16.6817 25.1677 17.8985 23.3425 18.8719 22.0041Z" stroke="white" stroke-width="1.5" stroke-miterlimit="10" stroke-linecap="round" stroke-linejoin="round"/>
</svg>
