<svg width="16" height="16" viewBox="0 0 16 16" fill="none" xmlns="http://www.w3.org/2000/svg">
<g id="Double Checkmark" clip-path="url(#clip0_1169_95688)">
<path id="Shape" d="M12.0458 3.4856C12.3299 3.78703 12.3158 4.26169 12.0144 4.54579L4.08456 12.0197C3.74829 12.3366 3.22042 12.3269 2.89609 11.9977L0.215757 9.27737C-0.074959 8.98231 -0.0714425 8.50745 0.223612 8.21674C0.518666 7.92602 0.993526 7.92954 1.28424 8.22459L3.51839 10.4921L10.9856 3.45421C11.287 3.17011 11.7617 3.18416 12.0458 3.4856Z" fill="#E3F563"/>
<g id="Shape_2">
<path d="M15.5881 3.4856C15.8722 3.78703 15.8581 4.26169 15.5567 4.54579L7.62687 12.0197C7.29059 12.3366 6.76272 12.3269 6.4384 11.9977C6.19575 11.7514 6.19722 11.3555 6.44168 11.1111L7.06069 10.4921L14.5279 3.45421C14.8293 3.17011 15.304 3.18416 15.5881 3.4856Z" fill="#E3F563"/>
</g>
</g>
<defs>
<clipPath id="clip0_1169_95688">
<rect width="16" height="16" fill="white"/>
</clipPath>
</defs>
</svg>
