<svg width="25" height="24" viewBox="0 0 25 24" fill="none" xmlns="http://www.w3.org/2000/svg">
<g id="Group">
<path id="Vector" d="M15.5703 24.0002H10.547V15.9072H9.48653C8.83909 15.9072 8.31445 15.3825 8.31445 14.7351V12.6142C8.31445 11.9667 8.83909 11.4421 9.48653 11.4421H10.547V8.65138C10.547 6.34068 12.4224 4.46533 14.7331 4.46533H17.747C18.3945 4.46533 18.9191 4.98997 18.9191 5.63741V8.31651C18.9191 8.96395 18.3945 9.48859 17.747 9.48859H15.5703V11.4421H17.6689C18.0261 11.4421 18.3498 11.5984 18.5731 11.8663C18.7963 12.1342 18.8856 12.4914 18.8186 12.8374L18.3945 14.9584C18.2828 15.5053 17.8028 15.896 17.2447 15.896H15.5703V24.0002ZM12.2214 22.3258H13.8958V14.2328H16.8428L17.0661 13.1165H13.907V8.98625C13.907 8.33881 14.4317 7.81417 15.0791 7.81417H17.2558V6.13975H14.7331C13.3489 6.13975 12.2214 7.26719 12.2214 8.65138V13.1165H9.98887V14.2328H12.2214V22.3258Z" fill="white"/>
<path id="Vector_2" d="M15.8488 24H9.15116C3.08977 24 0.5 21.4102 0.5 15.3488V8.65116C0.5 2.58977 3.08977 0 9.15116 0H15.8488C21.9102 0 24.5 2.58977 24.5 8.65116V15.3488C24.5 21.4102 21.9102 24 15.8488 24ZM9.15116 1.67442C4.00512 1.67442 2.17442 3.50512 2.17442 8.65116V15.3488C2.17442 20.4949 4.00512 22.3256 9.15116 22.3256H15.8488C20.9949 22.3256 22.8256 20.4949 22.8256 15.3488V8.65116C22.8256 3.50512 20.9949 1.67442 15.8488 1.67442H9.15116Z" fill="white"/>
</g>
</svg>
