<svg width="25" height="26" viewBox="0 0 25 26" fill="none" xmlns="http://www.w3.org/2000/svg">
<path d="M12.3991 25.2217C7.806 25.2217 3.66768 22.6865 1.55304 18.605C1.51893 18.5709 1.49618 18.5254 1.47344 18.4799C0.609397 16.7518 0.166016 14.91 0.166016 13C0.166016 11.09 0.609397 9.24824 1.47344 7.52015C3.56535 3.35908 7.74916 0.77832 12.3877 0.77832C15.5028 0.77832 18.3337 1.88111 20.5734 3.96164C20.7439 4.12081 20.8463 4.33683 20.8463 4.57558C20.8463 4.81433 20.7553 5.03035 20.5848 5.20089L17.3787 8.33872C17.049 8.65705 16.5374 8.66843 16.1963 8.3501C15.4801 7.67933 14.2408 6.88349 12.3877 6.88349C10.0457 6.88349 7.89696 8.29327 6.93059 10.4875C6.85101 10.6694 6.78278 10.8399 6.71457 11.0332C6.49856 11.6926 6.39625 12.3634 6.39625 13.0114C6.39625 13.6594 6.50993 14.3075 6.71457 14.9555C6.71457 14.9669 6.72595 14.9782 6.72595 15.001C7.54452 17.4794 9.81833 19.1393 12.3877 19.1393C13.7406 19.1393 14.9003 18.8096 15.8439 18.1502C16.7079 17.5476 17.2536 16.7404 17.5492 16.0128H12.3991C11.9329 16.0128 11.5464 15.6263 11.5464 15.1602V10.9422C11.5464 10.4761 11.9329 10.0896 12.3991 10.0896H23.0746C23.4725 10.0896 23.8136 10.3624 23.9045 10.749C24.0864 11.5448 24.166 12.2952 24.166 13.2615C24.166 16.8769 22.8699 20.0716 20.5052 22.2544C18.4019 24.1872 15.5938 25.2217 12.3991 25.2217ZM2.94005 17.6045C2.97416 17.65 3.00827 17.7068 3.03101 17.7637C4.81595 21.2994 8.40856 23.5164 12.3991 23.5164C15.1617 23.5164 17.5606 22.641 19.3455 20.9925C21.3579 19.1393 22.4607 16.388 22.4607 13.2502C22.4607 12.6817 22.4379 12.2269 22.3697 11.7835H13.2517V14.2961H18.6634C18.9022 14.2961 19.1409 14.3984 19.3001 14.5803C19.4592 14.7622 19.5388 15.0124 19.5047 15.2511C19.3569 16.5244 18.5611 18.3207 16.8216 19.5372C15.5938 20.3899 14.1044 20.8333 12.3877 20.8333C9.10208 20.8333 6.1916 18.7187 5.12291 15.5581C5.12291 15.5467 5.11155 15.5353 5.11155 15.524C4.82732 14.694 4.69089 13.8527 4.69089 13.0114C4.69089 12.1815 4.82732 11.3402 5.10018 10.4988C5.17976 10.2487 5.2707 10.0213 5.37302 9.79395C6.62362 6.9858 9.37493 5.17814 12.3877 5.17814C14.3318 5.17814 15.7643 5.86029 16.742 6.57654L18.7316 4.63243C16.9353 3.22267 14.7525 2.48368 12.3877 2.48368C8.3972 2.48368 4.79321 4.70065 2.99691 8.2819C2.25792 9.77124 1.87137 11.3629 1.87137 13C1.88274 14.6031 2.23517 16.1493 2.94005 17.6045Z" fill="white"/>
</svg>
