<svg width="38" height="38" viewBox="0 0 38 38" fill="none" xmlns="http://www.w3.org/2000/svg">
<g id="Group 33514">
<path id="Vector (Stroke)" fill-rule="evenodd" clip-rule="evenodd" d="M25.6211 9.65368C27.2053 9.20107 28.6698 10.6657 28.2172 12.2498L24.2176 26.2485C23.5509 28.5819 20.434 29.0202 19.1496 26.9612L16.3522 22.4764C16.1101 22.0883 15.7826 21.7608 15.3945 21.5187L10.9098 18.7213C8.85072 17.4369 9.28902 14.32 11.6224 13.6533L25.6211 9.65368ZM26.2232 11.5743C26.213 11.5714 26.1975 11.569 26.1706 11.5767L12.1719 15.5764C11.5052 15.7668 11.38 16.6574 11.9683 17.0244L16.453 19.8218C17.0998 20.2252 17.6457 20.7712 18.0491 21.4179L20.8466 25.9027C21.2135 26.491 22.1041 26.3657 22.2946 25.699L26.2942 11.7004C26.3019 11.6734 26.2995 11.6579 26.2967 11.6477C26.2929 11.6343 26.2842 11.6177 26.2687 11.6022C26.2532 11.5867 26.2366 11.578 26.2232 11.5743Z" fill="black"/>
<path id="Vector 15 (Stroke)" fill-rule="evenodd" clip-rule="evenodd" d="M21.435 16.435C21.8255 16.8255 21.8255 17.4587 21.435 17.8492L17.8995 21.3847C17.509 21.7753 16.8758 21.7753 16.4853 21.3847C16.0948 20.9942 16.0948 20.361 16.4853 19.9705L20.0208 16.435C20.4113 16.0445 21.0445 16.0445 21.435 16.435Z" fill="black"/>
</g>
</svg>
