<svg width="25" height="24" viewBox="0 0 25 24" fill="none" xmlns="http://www.w3.org/2000/svg">
<g id="icon_line/Category">
<g id="Vector">
<path d="M3.89941 6C3.89941 4.34315 5.24256 3 6.89941 3H7.89941C9.55627 3 10.8994 4.34315 10.8994 6V7C10.8994 8.65685 9.55627 10 7.89941 10H6.89941C5.24256 10 3.89941 8.65685 3.89941 7V6Z" stroke="white" stroke-width="2"/>
<path d="M14.8994 6C14.8994 4.34315 16.2426 3 17.8994 3H18.8994C20.5563 3 21.8994 4.34315 21.8994 6V7C21.8994 8.65685 20.5563 10 18.8994 10H17.8994C16.2426 10 14.8994 8.65685 14.8994 7V6Z" stroke="white" stroke-width="2"/>
<path d="M14.8994 17C14.8994 15.3431 16.2426 14 17.8994 14H18.8994C20.5563 14 21.8994 15.3431 21.8994 17V18C21.8994 19.6569 20.5563 21 18.8994 21H17.8994C16.2426 21 14.8994 19.6569 14.8994 18V17Z" stroke="white" stroke-width="2"/>
<path d="M3.89941 17C3.89941 15.3431 5.24256 14 6.89941 14H7.89941C9.55627 14 10.8994 15.3431 10.8994 17V18C10.8994 19.6569 9.55627 21 7.89941 21H6.89941C5.24256 21 3.89941 19.6569 3.89941 18V17Z" stroke="white" stroke-width="2"/>
</g>
</g>
</svg>
