<svg width="38" height="38" viewBox="0 0 38 38" fill="none" xmlns="http://www.w3.org/2000/svg">
<g id="Group 33514">
<path id="Vector (Stroke)" fill-rule="evenodd" clip-rule="evenodd" d="M25.6206 9.65368C27.2048 9.20107 28.6694 10.6657 28.2167 12.2498L24.2171 26.2485C23.5504 28.5819 20.4335 29.0202 19.1491 26.9612L16.3517 22.4764C16.1097 22.0883 15.7821 21.7608 15.394 21.5187L10.9093 18.7213C8.85023 17.4369 9.28853 14.32 11.6219 13.6533L25.6206 9.65368ZM26.2227 11.5743C26.2125 11.5714 26.197 11.569 26.1701 11.5767L12.1714 15.5764C11.5047 15.7668 11.3795 16.6574 11.9678 17.0244L16.4525 19.8218C17.0993 20.2252 17.6452 20.7712 18.0487 21.4179L20.8461 25.9027C21.213 26.491 22.1036 26.3657 22.2941 25.699L26.2937 11.7004C26.3014 11.6734 26.299 11.6579 26.2962 11.6477C26.2924 11.6343 26.2837 11.6177 26.2683 11.6022C26.2528 11.5867 26.2361 11.578 26.2227 11.5743Z" fill="white"/>
<path id="Vector 15 (Stroke)" fill-rule="evenodd" clip-rule="evenodd" d="M21.4355 16.435C21.826 16.8255 21.826 17.4587 21.4355 17.8492L17.9 21.3847C17.5095 21.7753 16.8763 21.7753 16.4858 21.3847C16.0952 20.9942 16.0952 20.361 16.4858 19.9705L20.0213 16.435C20.4118 16.0445 21.045 16.0445 21.4355 16.435Z" fill="white"/>
</g>
</svg>
